<svg xmlns="http://www.w3.org/2000/svg" fill-rule="evenodd" stroke-linejoin="round" stroke-miterlimit="2" clip-rule="evenodd" viewBox="0 0 62 62"><g fill-rule="nonzero"><path fill="#1a9f82" d="M58.638 30.825c0 15.361-12.453 27.814-27.814 27.814S3.01 46.186 3.01 30.825 15.463 3.01 30.824 3.01c15.361.001 27.814 12.454 27.814 27.815"/><path fill="#fff" d="M53.24 30.825c0 12.38-10.036 22.415-22.415 22.415-12.38 0-22.415-10.035-22.415-22.415S18.445 8.41 30.825 8.41 53.24 18.445 53.24 30.825"/><path fill="#fff" d="M40.524 40.493a2.81 2.81 0 0 1-2.811 2.811h-5.212v.001a1.88 1.88 0 0 0-1.689 1.104 1.87 1.87 0 0 0-1.708-1.105h-5.213a2.81 2.81 0 0 1-2.811-2.811V18.94h19.444z"/><path fill="#76777b" d="M20.724 18.583v.35h.001v21.563a3.164 3.164 0 0 0 3.163 3.164h5.215c.841 0 1.524.682 1.524 1.523h.372c0-.841.682-1.523 1.523-1.523h5.194a3.164 3.164 0 0 0 3.164-3.164V18.583zm19.805 21.913a2.813 2.813 0 0 1-2.813 2.812h-5.215v.001a1.87 1.87 0 0 0-1.688 1.105 1.88 1.88 0 0 0-1.71-1.106h-5.215a2.81 2.81 0 0 1-2.812-2.812V18.933h19.453zm-6.44 1.757a.2.2 0 0 1-.05-.046.3.3 0 0 1-.033-.062.2.2 0 0 1-.013-.075.23.23 0 0 1 .171-.227.4.4 0 0 1 .113-.015q.073 0 .127.018a.3.3 0 0 1 .09.05.22.22 0 0 1 .07.161q0 .048-.012.085a.2.2 0 0 1-.082.11.2.2 0 0 1-.058.025v.011a.2.2 0 0 1 .122.074.3.3 0 0 1 .043.075.36.36 0 0 1-.008.237.26.26 0 0 1-.167.155.5.5 0 0 1-.252.002.3.3 0 0 1-.098-.053.3.3 0 0 1-.065-.092.3.3 0 0 1-.023-.127.3.3 0 0 1 .056-.186.22.22 0 0 1 .127-.085v-.011a.2.2 0 0 1-.058-.024m.767.515a.14.14 0 0 0 .075.018.14.14 0 0 0 .078-.025q.04-.026.072-.077c.032-.051.039-.077.053-.13s.021-.115.023-.188l-.003-.003a.2.2 0 0 1-.063.061.2.2 0 0 1-.048.017.3.3 0 0 1-.162-.012.25.25 0 0 1-.137-.142.42.42 0 0 1 0-.261.29.29 0 0 1 .284-.198q.074 0 .132.026a.26.26 0 0 1 .103.078.4.4 0 0 1 .066.13.6.6 0 0 1 .024.182q0 .144-.031.257a.45.45 0 0 1-.086.189.4.4 0 0 1-.134.118.4.4 0 0 1-.227.034.2.2 0 0 1-.046-.014l-.014-.043-.019-.045.009-.011a.3.3 0 0 0 .051.039m-9.269-.192q.072-.09.118-.168a.7.7 0 0 0 .065-.152.5.5 0 0 0 .009-.248q-.012-.04-.031-.066c-.019-.026-.028-.029-.043-.036a.1.1 0 0 0-.05-.011.1.1 0 0 0-.062.022.2.2 0 0 0-.04.057.4.4 0 0 0-.026.138l-.013.004-.052-.051-.052-.047a.3.3 0 0 1 .092-.135.3.3 0 0 1 .187-.055q.091 0 .153.023.06.024.096.062.035.038.05.084a.3.3 0 0 1-.002.19.5.5 0 0 1-.058.119 1.4 1.4 0 0 1-.117.15q-.075.083-.191.193l.002.003.189-.003A3 3 0 0 0 26 42.64q0 .026-.003.048a1 1 0 0 0 0 .098l.003.045-.149-.003h-.295q-.073 0-.145.003v-.063q.103-.105.176-.192m.775 0q.073-.09.118-.168a.5.5 0 0 0 .065-.152.5.5 0 0 0 .009-.248.2.2 0 0 0-.03-.066.1.1 0 0 0-.044-.036.1.1 0 0 0-.049-.011.1.1 0 0 0-.063.022.2.2 0 0 0-.039.057.4.4 0 0 0-.026.138l-.013.004q-.027-.028-.052-.051l-.053-.047a.27.27 0 0 1 .093-.135.3.3 0 0 1 .186-.055.5.5 0 0 1 .154.023.3.3 0 0 1 .096.062q.035.038.049.084.015.045.015.088 0 .05-.017.102c-.017.052-.03.075-.058.119s-.067.094-.116.15q-.074.083-.192.193l.002.003.19-.003a3 3 0 0 0 .189-.009l-.003.048q-.002.024-.002.049c0 .025 0 .033.002.049l.003.045-.15-.003h-.295l-.144.003v-.063q.103-.105.175-.192m7.26-.65-.005.113-.003.118-.001.116v.203l.002.163.006.191-.052-.002h-.106l-.052.002.004-.068.005-.099.003-.115q.002-.061.002-.124v-.419l-.028.015-.04.023-.045.025-.042.021-.034-.046-.031-.035q.104-.042.198-.087.093-.046.198-.105l.026.012zm2.326 0-.004.113-.003.118-.002.116v.203l.003.163.005.191-.052-.002h-.105l-.053.002.004-.068.005-.099.004-.115.002-.124v-.419l-.028.015-.041.023-.045.025-.041.021a1 1 0 0 0-.066-.081 3 3 0 0 0 .396-.192l.026.012zm-7.514.282-.083-.165-.072-.144-.045-.091.061.005a.6.6 0 0 0 .12 0l.059-.005a15 15 0 0 0 .166.363q.052-.091.1-.181.05-.091.096-.182l.068.008.069-.008q-.023.033-.057.087l-.073.116-.079.128-.074.12.074.155.08.163.073.147.054.106-.059-.002h-.117l-.058.002q-.043-.09-.086-.186l-.089-.19-.107.19-.097.186-.066-.002h-.033l-.035.002q.026-.035.06-.092l.074-.122.078-.13.075-.124zm1.203-.207-.008-.193a1 1 0 0 0 .11.008 1 1 0 0 0 .11-.008q-.006.097-.008.193c-.002.096-.003.137-.003.22v.202a7 7 0 0 0 .011.407l-.05-.002h-.12l-.05.002a6 6 0 0 0 .011-.407v-.202q0-.124-.003-.22m-.477 0-.008-.193a1 1 0 0 0 .11.008 1 1 0 0 0 .11-.008q-.006.097-.008.193c-.002.096-.003.137-.003.22v.202a7 7 0 0 0 .011.407l-.05-.002h-.12l-.05.002a6 6 0 0 0 .011-.407v-.202q0-.124-.003-.22m5.202.376q-.034-.056-.086-.056-.05 0-.082.054a.4.4 0 0 0-.032.18q0 .118.032.177.033.058.085.058.045 0 .081-.057a.36.36 0 0 0 .036-.18.35.35 0 0 0-.034-.176m-6.997.043h.334v.163h-.334zm7.758-.469q-.031-.056-.082-.056-.057 0-.085.062a.4.4 0 0 0-.028.174q0 .064.009.109c.009.045.014.053.024.071s.022.031.036.039.029.012.045.012q.023 0 .043-.012a.1.1 0 0 0 .035-.038.2.2 0 0 0 .025-.066.5.5 0 0 0 .009-.1.44.44 0 0 0-.031-.195m-.763-.012q-.025-.05-.077-.05-.06 0-.085.052a.34.34 0 0 0-.025.146q0 .086.032.13c.032.044.045.044.071.044q.048 0 .078-.05c.03-.05.03-.08.03-.139a.3.3 0 0 0-.024-.133m4.294-3.084V22.449H22.951v16.406a2.343 2.343 0 0 0 2.344 2.344h4.453c.517 0 .937.419.937.937v.001h.235v-.001c0-.518.42-.937.937-.937h4.453a2.343 2.343 0 0 0 2.344-2.344m-.234-5.199v5.199a2.11 2.11 0 0 1-2.11 2.11h-4.453c-.383 0-.723.184-.937.469v-3.722l2.321-.291.258.022-1.781.923c-.028.015-.04.049-.028.079s.045.045.075.036l1.912-.607-1.292 1.534a.06.06 0 0 0 .004.083.06.06 0 0 0 .083.004l1.535-1.292-.607 1.912a.062.062 0 0 0 .114.047l.923-1.78.171 1.998c.003.032.03.056.062.056s.059-.024.062-.056l.171-1.998.923 1.78a.06.06 0 0 0 .078.029.06.06 0 0 0 .036-.076l-.607-1.912 1.535 1.292c.024.02.06.019.083-.004a.06.06 0 0 0 .004-.083l-1.292-1.534 1.911.607a.064.064 0 0 0 .077-.036.063.063 0 0 0-.029-.079l-1.781-.923 1.999-.171a.06.06 0 0 0 .056-.062.06.06 0 0 0-.056-.061l-1.999-.171 1.781-.924a.06.06 0 0 0 .029-.078.063.063 0 0 0-.077-.035l-1.911.606 1.292-1.534a.063.063 0 0 0-.004-.084.06.06 0 0 0-.083-.003l-1.535 1.292.607-1.912c.01-.031-.006-.064-.036-.076s-.063 0-.078.029l-.923 1.78-.171-1.998c-.003-.032-.03-.057-.062-.057s-.059.025-.062.057l-.171 1.998-.923-1.78c-.014-.029-.049-.041-.079-.029a.06.06 0 0 0-.035.076l.607 1.912-1.535-1.292a.062.062 0 0 0-.087.087l1.292 1.534-1.912-.606c-.03-.01-.063.005-.075.035s0 .064.028.078l1.781.924-.127.011-2.452-.234v-4.7c.373.356 1.262 1.159 1.956 1.409 1.143.412 1.852-.187 2.071-.415.179.231.725.842 1.492.842.332 0 .682-.139 1.011-.401.162-.13.282-.258.346-.332zm-7.735 3.556-1.039.672a.083.083 0 0 0-.024.115.08.08 0 0 0 .069.037.1.1 0 0 0 .045-.013l.949-.614v.226l-.002.032.002.02v1.134q-.238.075-.494.076c-.806 0-1.461-.58-1.461-1.292 0-.442.257-.843.656-1.077a.444.444 0 1 0 .322-.313v-.002l-.021.006-.008.003c-.655.195-1.114.752-1.114 1.383 0 .804.729 1.457 1.626 1.457q.255 0 .494-.069v2.441a1.17 1.17 0 0 0-.937-.469h-4.453a2.11 2.11 0 0 1-2.061-1.661.553.553 0 0 0 .826-.146.555.555 0 0 0 .952 0c.095.16.269.269.467.272l.023.003c.156-.001.354-.024.498-.198.177-.214.296-.483.422-.767.245-.552.55-1.238 1.434-1.881a5 5 0 0 1 1.435-.733 2.1 2.1 0 0 0 1.394.031zm3.061-.246-1.328-.688 1.426.451c.026.009.055-.001.07-.024s.013-.053-.004-.074l-.963-1.144 1.143.963c.022.018.052.02.075.004a.06.06 0 0 0 .025-.07l-.453-1.426.688 1.329c.013.024.04.037.067.032a.06.06 0 0 0 .05-.056l.128-1.49.127 1.49c.003.028.024.05.05.056a.06.06 0 0 0 .067-.032l.689-1.329-.453 1.426a.06.06 0 0 0 .025.07.06.06 0 0 0 .074-.004l1.145-.963-.964 1.144a.062.062 0 0 0 .066.098l1.426-.451-1.328.688c-.024.013-.037.04-.032.067s.028.048.055.05l1.491.127-1.491.128c-.027.003-.05.023-.055.05s.008.054.032.067l1.328.689-1.426-.453a.06.06 0 0 0-.07.025.06.06 0 0 0 .004.074l.964 1.144-1.145-.963a.062.062 0 0 0-.099.066l.453 1.426-.689-1.328a.06.06 0 0 0-.067-.033.064.064 0 0 0-.05.056l-.127 1.49-.128-1.49a.06.06 0 0 0-.05-.056l-.011-.001a.06.06 0 0 0-.056.034l-.688 1.328.453-1.426c.008-.027-.002-.056-.025-.071s-.053-.013-.075.005l-1.143.963.963-1.144a.06.06 0 0 0 .004-.074.06.06 0 0 0-.07-.025l-1.426.453 1.328-.689a.06.06 0 0 0 .032-.067.06.06 0 0 0-.055-.05l-1.49-.128 1.49-.127a.06.06 0 0 0 .055-.05.06.06 0 0 0-.032-.067m-4.819 2.252a.083.083 0 0 0-.114-.024.455.455 0 0 1-.704-.38.45.45 0 0 1 .125-.312q.014-.015.03-.029a.083.083 0 0 0 .007-.117.083.083 0 0 0-.117-.007l-.045.044a.455.455 0 0 1-.537-.729.083.083 0 0 0 .007-.117.083.083 0 0 0-.117-.007.62.62 0 0 0-.136.76.62.62 0 0 0 .796.948.616.616 0 0 0 .781.085.083.083 0 0 0 .024-.115m1.758-5.26-1.164.754a.083.083 0 0 0-.025.114.084.084 0 0 0 .115.024l1.074-.695v1.343l-.086-.001c-.086-.006-.597-.029-1.3.182-.538-.222-.907-.681-.907-1.21 0-.43.246-.814.627-1.062a.428.428 0 0 0 .421.51.429.429 0 1 0-.138-.835v-.001c-.633.237-1.075.77-1.075 1.388 0 .541.337 1.016.845 1.286a5.2 5.2 0 0 0-1.313.698c-.921.669-1.235 1.378-1.488 1.947-.127.286-.236.533-.398.729-.08.096-.186.137-.365.138l-.021-.003a.39.39 0 0 1-.388-.388.083.083 0 0 0-.083-.083l-.004.001-.003-.001a.08.08 0 0 0-.084.083.389.389 0 0 1-.777 0 .083.083 0 0 0-.083-.083l-.003.001-.006-.001a.083.083 0 0 0-.083.083.389.389 0 0 1-.777 0 .1.1 0 0 0-.011-.04v-1.314a.554.554 0 0 0 .847-.128c.095.16.268.268.467.271l.023.004c.157-.001.354-.024.499-.199.168-.204.308-.519.47-.884.34-.767.806-1.818 1.905-2.686 1.672-1.321 3.22-1.087 3.239-1.084q.027.004.05-.007zm-2.938 5.251a.455.455 0 0 1-.322-.774.62.62 0 0 0 .551.181.63.63 0 0 0 .047.5.45.45 0 0 1-.276.093m3.754-2.06a.06.06 0 0 0-.057.061c0 .033.025.06.057.062l1.148.099-1.729.215v-.707l1.763.168zm-.816-4.488-.023-.008c-.066-.011-1.633-.253-3.369 1.118-1.131.893-1.606 1.965-1.954 2.748-.157.354-.292.659-.446.846-.08.096-.186.136-.364.138l-.022-.003a.39.39 0 0 1-.388-.388.083.083 0 0 0-.082-.083h-.008a.083.083 0 0 0-.084.083.39.39 0 0 1-.76.115v-5.285h7.5zm-3.024 3.409a.62.62 0 0 0 .422-.165c.033-.032.035-.084.004-.117s-.083-.036-.117-.004a.453.453 0 0 1-.763-.333.46.46 0 0 1 .132-.321.62.62 0 0 0 .786.09c.038-.025.049-.077.024-.115s-.076-.049-.114-.024a.455.455 0 0 1-.549-.721c.034-.03.037-.083.007-.117s-.082-.038-.117-.007a.62.62 0 0 0-.136.759.62.62 0 0 0 .421 1.075m3.024-.359a1.95 1.95 0 0 1-1.099.061 3.5 3.5 0 0 1 1.002-.11l.097.001zm7.735-2.267-.651-.52-.051.068c-.006.007-.564.733-1.279.733-.836 0-1.411-.845-1.417-.855l-.066-.097-.069.095c-.002.002-.169.224-.492.392-.436.225-.927.241-1.463.048-.652-.235-1.52-1.014-1.891-1.366h7.379zm-12.101-1.737v-1.576c.263.049.607.082.998.043.459-.046.773-.217.939-.334v1.867zm4.366 0h-2.263v-2.04a.083.083 0 0 0-.142-.059c-.003.004-.339.338-.98.402a3.4 3.4 0 0 1-1.235-.108c.271-.102.729-.289 1.066-.504.511-.325.958-.814.977-.834a.085.085 0 0 0 .01-.098.08.08 0 0 0-.091-.038 10 10 0 0 1-.763.149 3 3 0 0 1-.468.019c.272-.161.701-.432.926-.658a2.95 2.95 0 0 0 .716-1.158c.01-.035-.003-.072-.033-.092s-.07-.018-.098.005a1.7 1.7 0 0 1-.617.274 2.4 2.4 0 0 1-.447.066c.216-.189.595-.543.863-.925.502-.715.587-1.242.59-1.264a.08.08 0 0 0-.035-.082.08.08 0 0 0-.088-.002c-.004.002-.384.222-.507.28-.044.02-.117.05-.196.081.178-.209.424-.533.633-.933.276-.531.326-1.193.332-1.504h1.85zm.235 0v-.897a.55.55 0 0 0 .448-.263.554.554 0 0 0 .943.001.552.552 0 0 0 .941 0 .554.554 0 0 0 .947-.007.554.554 0 0 0 .946.007.553.553 0 0 0 .942.001.554.554 0 0 0 .942 0 .554.554 0 0 0 .947-.008c.091.154.255.26.444.271v.895zm-7.735-.906a.55.55 0 0 0 .573-.254.55.55 0 0 0 .941.001.552.552 0 0 0 .941 0 .55.55 0 0 0 .471.264l.042-.002v.897h-2.968zm15.235-.155a.39.39 0 0 1-.357-.387.083.083 0 0 0-.083-.082h-.009a.08.08 0 0 0-.082.082.39.39 0 0 1-.721.201v-7.776h1.252zm-1.473-.385a.389.389 0 0 1-.777.003v-.005a.083.083 0 1 0-.166 0l.001.005a.389.389 0 0 1-.777-.003v-.002a.083.083 0 1 0-.165 0v.002q0 .034-.006.065l-.677-.571a5.5 5.5 0 0 0 .498-.618q.07-.098.149-.217l1.976.861v.399a.08.08 0 0 0-.05.047.1.1 0 0 0-.007.032zm-3.695-.086a.08.08 0 0 0-.076.051.1.1 0 0 0-.006.033v.001a.39.39 0 0 1-.144.299l-1.951-1.191c.159-.147.526-.5.94-1.02l2.132.846v.996a.1.1 0 0 0-.035.069.39.39 0 0 1-.777.001v-.002a.083.083 0 0 0-.083-.083m1.061-.243.664.57a.388.388 0 0 1-.664-.104zm-11.128-7.248h3.379c-.012.317-.069.905-.311 1.368a3.6 3.6 0 0 1-.835 1.064.08.08 0 0 0-.03.081.08.08 0 0 0 .059.063c.019.006.197.048.566-.091a2.4 2.4 0 0 0 .342-.158c-.08.209-.246.55-.566.938-.413.5-.901.736-.906.739a.08.08 0 0 0-.046.073.08.08 0 0 0 .044.075c.011.006.263.132.729.111.209-.01.36-.032.467-.056a4.2 4.2 0 0 1-.574.621c-.328.303-.945.474-.951.476a.08.08 0 0 0-.061.073.08.08 0 0 0 .048.082c.013.005.31.141.616.207.281.06.603.01.787-.032-.092.253-.339.794-.84 1.131-.469.317-1.038.481-1.043.483a.08.08 0 0 0-.06.091c.006.042.042.07.083.071l1.951-.028.12.03v.548a.39.39 0 0 1-.43-.384v-.002a.083.083 0 0 0-.159-.032.1.1 0 0 0-.007.033l.001.001a.389.389 0 0 1-.776.003v-.005a.083.083 0 0 0-.166 0v.005a.387.387 0 0 1-.776-.005.1.1 0 0 0-.014-.047.083.083 0 0 0-.151.047.388.388 0 0 1-.49.374zm7.735 6.782 1.308.799a.388.388 0 0 1-.776-.007.084.084 0 0 0-.084-.083.083.083 0 0 0-.082.083.39.39 0 0 1-.366.387zm1.923 1.175a.39.39 0 0 1-.431-.263zm-4.174-7.957c-.007.297-.055.933-.313 1.428-.355.68-.836 1.146-.841 1.151a.08.08 0 0 0-.013.103.08.08 0 0 0 .099.034c.017-.006.401-.148.535-.21.074-.036.229-.122.351-.19a3.7 3.7 0 0 1-.516 1.013c-.374.532-.994 1.028-1 1.033a.08.08 0 0 0-.029.086.08.08 0 0 0 .067.061c.011.001.271.04.719-.065.195-.046.352-.112.466-.172a3 3 0 0 1-.59.866c-.321.323-1.124.765-1.132.77a.08.08 0 0 0-.041.089.08.08 0 0 0 .073.065c.019.002.473.041.784-.005a8 8 0 0 0 .504-.092 5 5 0 0 1-.75.61c-.481.306-1.249.565-1.256.567a.08.08 0 0 0-.057.075l.001.004-1.162.016c.191-.081.417-.193.627-.335.72-.485.944-1.329.953-1.364a.083.083 0 0 0-.105-.1c-.005.002-.481.146-.853.066a3 3 0 0 1-.375-.112c.224-.081.569-.23.8-.443.635-.584.714-.845.721-.873a.08.08 0 0 0-.034-.09.08.08 0 0 0-.094.002c-.001.001-.138.089-.606.11a1.8 1.8 0 0 1-.478-.039 3.2 3.2 0 0 0 .792-.689c.557-.675.668-1.209.672-1.231a.08.08 0 0 0-.041-.089.08.08 0 0 0-.097.013c-.002.001-.143.134-.496.268q-.159.058-.262.076c.18-.178.468-.503.708-.962.26-.5.319-1.115.33-1.445zm8.334 4.8v2.117l-1.886-.822c.252-.396.556-.941.864-1.651zm-1.047-.721c-.674 1.652-1.37 2.519-1.643 2.82v-6.899h2.676a15.7 15.7 0 0 1-1.033 4.079m-1.829-4.079c-.075.561-.38 2.405-1.328 4.18a9.3 9.3 0 0 1-1.879 2.421v-6.601zm.02 5.171v1.161l-2.026-.803c.213-.277.433-.594.642-.947zm0-2.208v2.028l-1.301-.553q.05-.088.099-.18c.274-.514.496-1.033.673-1.525zm2.856.471v1.191l-.957-.333.063-.151q.188-.461.333-.904zm-.509-.353c.248-.774.408-1.481.509-2.035v2.213zm-2.347-.299-.474-.206c.227-.653.377-1.253.474-1.724zm-6.884-4.196a1 1 0 0 0-.019.11.96.96 0 0 1-.47.104 1 1 0 0 1-.358-.062.7.7 0 0 1-.268-.178.8.8 0 0 1-.168-.27 1 1 0 0 1-.057-.338q0-.267.074-.453a.85.85 0 0 1 .202-.302.8.8 0 0 1 .292-.17 1.1 1.1 0 0 1 .475-.044q.066.01.128.028a.8.8 0 0 1 .215.088 1 1 0 0 0-.053.26h-.032a.6.6 0 0 0-.18-.175.43.43 0 0 0-.403-.006q-.093.046-.169.141a.6.6 0 0 0-.123.242 1.1 1.1 0 0 0-.048.352q0 .198.049.338a.7.7 0 0 0 .125.228q.078.088.176.129a.51.51 0 0 0 .423-.011.55.55 0 0 0 .191-.14l.03.021zm10.44.18a.6.6 0 0 1-.223-.115.56.56 0 0 1-.149-.208.8.8 0 0 1-.054-.309l.001-.183.001-.15.001-.133.001-.134-.002-.336a3 3 0 0 0-.007-.192 1.5 1.5 0 0 0 .378 0q-.023.249-.027.463c-.004.214-.005.287-.005.434q0 .234.03.377.03.144.089.222c.059.078.087.087.144.103a.7.7 0 0 0 .198.026.3.3 0 0 0 .218-.077.5.5 0 0 0 .118-.205q.04-.128.05-.293.009-.166.009-.345a14 14 0 0 0-.018-.705.7.7 0 0 0 .175.009l.057-.009a22 22 0 0 0-.029.962q0 .446-.174.639-.172.193-.507.193-.147 0-.275-.034m-8.788-.854q-.088-.004-.176-.004a5 5 0 0 0-.35.011v.145a11 11 0 0 0 .018.703l-.085-.005h-.208l-.085.005q.008-.159.014-.324.004-.165.004-.379V20.4q0-.213-.004-.378l-.014-.332a1 1 0 0 0 .293.009l.085-.009a7 7 0 0 0-.015.33q-.003.162-.003.375l.144.004.209.001.203-.001.145-.004a11 11 0 0 0-.019-.705 1 1 0 0 0 .294.009l.085-.009a13 13 0 0 0-.019.71v.348a14 14 0 0 0 .019.703l-.085-.005h-.208l-.086.005a11 11 0 0 0 .019-.703v-.145zm-5.867-.574q-.004-.165-.013-.332a1 1 0 0 0 .189.013q.081 0 .167-.006.086-.007.17-.007.163 0 .256.027.092.027.145.078a.42.42 0 0 1 .143.347.7.7 0 0 1-.044.25q-.043.106-.123.171a.4.4 0 0 1-.188.096 1 1 0 0 1-.238.031h-.117q0 .192.003.383c.003.191.008.253.015.378l-.085-.005h-.208l-.085.005a11 11 0 0 0 .018-.702V20.4q0-.213-.005-.378m11.844.855-.037.574-.056-.005h-.107l-.055.005q.075-.44.132-.877.058-.435.107-.884a.5.5 0 0 0 .094.013.5.5 0 0 0 .093-.013q.061.154.13.313l.136.316q.068.158.136.309l.13.287a18 18 0 0 0 .538-1.225.5.5 0 0 0 .099.013.5.5 0 0 0 .097-.013l.049.475.052.495q.026.242.051.453.025.21.046.338a1 1 0 0 0-.093-.005h-.188q-.05 0-.097.005a14 14 0 0 0-.039-.571l-.053-.611h-.005a158 158 0 0 0-.51 1.182l-.022-.004-.021-.001-.023.001-.021.004-.249-.574-.254-.582h-.005a10 10 0 0 0-.055.582m-3.364-.855a9 9 0 0 0-.013-.332 1 1 0 0 0 .292.009l.086-.009a13 13 0 0 0-.019.71v.349a25 25 0 0 0 .005.518 3.5 3.5 0 0 0 .528-.034l-.007.051a1 1 0 0 0 0 .129l.007.038-.153-.004-.251-.001h-.365l-.078.001-.045.004a14 14 0 0 0 .018-.702V20.4q0-.213-.005-.378m-1.22 0q-.005-.165-.014-.332a1 1 0 0 0 .293.009q.046-.003.086-.009a14 14 0 0 0-.019.71v.349a14 14 0 0 0 .019.702l-.086-.005h-.207l-.086.005a11 11 0 0 0 .019-.702V20.4q0-.213-.005-.378m-5.485 0-.014-.332a1 1 0 0 0 .293.009l.085-.009a13 13 0 0 0-.018.71v.349a11 11 0 0 0 .018.702l-.085-.005h-.208l-.085.005q.008-.159.014-.324.004-.165.004-.378V20.4q0-.213-.004-.378m8.298 0-.012-.332.205.008a9 9 0 0 0 .687-.008.5.5 0 0 0-.009.108l.002.064.007.051-.146-.01-.155-.01q-.075-.006-.135-.008l-.085-.003q-.01.142-.01.28l-.001.279q.148-.002.27-.007l.253-.013a.7.7 0 0 0-.008.157l.008.063a6 6 0 0 0-.523-.023l-.002.164-.001.164q0 .166.007.321.132 0 .263-.008c.131-.008.176-.014.265-.026l-.007.051a1 1 0 0 0 0 .129l.007.038-.153-.004-.25-.001h-.366l-.078.001-.045.004a16 16 0 0 0 .016-.702V20.4q0-.213-.004-.378m-9.4-.004q-.02-.066-.053-.106c-.033-.04-.049-.046-.078-.058a.3.3 0 0 0-.094-.018h-.076l-.021.003-.003.363-.001.357a.5.5 0 0 0 .118-.013.3.3 0 0 0 .112-.052.3.3 0 0 0 .083-.114.5.5 0 0 0 .033-.197.6.6 0 0 0-.02-.165m7.081-10.489-.117.108v.002a12.3 12.3 0 0 0-2.488 3.18 15.8 15.8 0 0 0-6.108 2.378l-.029.019-.153.101.989 1.454.929 1.366c.203-.249.541-.648.732-.807 1.297-1.078 2.585.695 4.623.69.668-.001 1.271-.492 1.271-.492l-.821-.821s-1.063 1.003-2.226.704a3.2 3.2 0 0 1-1.024-.478q.226-.087.455-.164l-.147-.409a.107.107 0 0 0-.136-.064.105.105 0 0 0-.135-.064l-.059.021a.85.85 0 0 0-.234-1.079.37.37 0 0 1-.167-.316h-.001a.47.47 0 0 0-.146-.322.106.106 0 0 0 .061-.135.105.105 0 0 0 .064-.135l-.131-.365q.312-.108.631-.201l.086.341a.106.106 0 0 0 .129.077c.013.056.07.09.126.077a.46.46 0 0 0 .058.35.37.37 0 0 1 .033.368.846.846 0 0 0 .412 1.013l-.06.016a.106.106 0 0 0-.077.128.107.107 0 0 0-.077.129l.116.459q.354-.107.716-.194l-.112-.447a.106.106 0 0 0-.129-.076.105.105 0 0 0-.129-.077l-.06.015a.85.85 0 0 0-.128-1.097.4.4 0 0 1-.127-.197.4.4 0 0 1-.008-.134l-.001.001a.47.47 0 0 0-.114-.336.105.105 0 0 0 .074-.127.107.107 0 0 0 .077-.129l-.089-.351q.385-.094.775-.166-.13.268-.248.544l-.005.008.967 1.821a13 13 0 0 1 2.045-.179V9.639zl.017.015.101.093v5.9a13 13 0 0 1 2.045.179l.967-1.821-.005-.008a12 12 0 0 0-.251-.548q.403.074.798.17l-.089.351a.107.107 0 0 0 .077.129.105.105 0 0 0 .074.127.46.46 0 0 0-.114.336l-.001-.001a.4.4 0 0 1-.008.134.4.4 0 0 1-.127.197.85.85 0 0 0-.128 1.097l-.06-.015a.105.105 0 0 0-.129.077.106.106 0 0 0-.129.076l-.112.447q.362.087.716.194l.116-.459a.107.107 0 0 0-.077-.129.106.106 0 0 0-.077-.128l-.06-.016a.846.846 0 0 0 .412-1.013.37.37 0 0 1 .034-.368l-.001-.001a.48.48 0 0 0 .059-.349.105.105 0 0 0 .126-.077.107.107 0 0 0 .129-.077l.086-.341q.319.093.631.201l-.131.365a.105.105 0 0 0 .064.135.106.106 0 0 0 .061.135.48.48 0 0 0-.146.322h-.002a.37.37 0 0 1-.166.316.85.85 0 0 0-.235 1.079l-.058-.021a.107.107 0 0 0-.136.064.107.107 0 0 0-.136.064l-.147.409q.23.078.455.164a3.2 3.2 0 0 1-1.024.478c-1.163.299-2.228-.704-2.228-.704l-.82.82s.603.491 1.27.493c2.04.005 3.329-1.767 4.626-.69.191.159.529.558.734.807l.928-1.366.989-1.454-.153-.101-.029-.019a15.85 15.85 0 0 0-6.132-2.382 12.4 12.4 0 0 0-2.587-3.271zm7.768 7.154a14 14 0 0 0-.395-.207v-.054a.37.37 0 0 1 .135-.344.47.47 0 0 0 .154-.319c.05.027.114.011.143-.039a.106.106 0 0 0 .145-.038l.184-.313q.185.115.368.234zm-15.117-.207c-.14.07-.275.141-.396.207l-.734-1.08q.183-.119.368-.234l.184.313c.03.051.095.068.145.038.03.05.093.066.143.039a.47.47 0 0 0 .154.319h-.001a.37.37 0 0 1 .136.344zm2.723-.157-.058.021a.105.105 0 0 0-.064.135.106.106 0 0 0-.064.135l.02.058c-.221-.163-.434-.315-.674-.421a.85.85 0 0 0-.397-.638.36.36 0 0 1-.196-.299h-.001a.48.48 0 0 0-.176-.307.106.106 0 0 0 .049-.139.106.106 0 0 0 .051-.141l-.149-.317q.291-.131.591-.249l.129.359c.02.055.081.084.135.065.02.054.079.082.134.064a.47.47 0 0 0 .092.342.38.38 0 0 1 .069.364.845.845 0 0 0 .509.968m10.785-1.597a.107.107 0 0 0 .051.142.104.104 0 0 0 .049.139.48.48 0 0 0-.177.308v-.001a.37.37 0 0 1-.196.299.85.85 0 0 0-.398.638c-.24.106-.453.258-.674.42l.02-.056a.107.107 0 0 0-.064-.136.105.105 0 0 0-.064-.135l-.058-.021a.854.854 0 0 0 .509-.968.37.37 0 0 1 .069-.364.47.47 0 0 0 .092-.342.105.105 0 0 0 .133-.064.107.107 0 0 0 .136-.065l.13-.359q.298.118.591.249zm-8.205 1.212.233.438a12.3 12.3 0 0 1 3.626 0l.233-.438a12.8 12.8 0 0 0-4.092 0m9.279-.182a.5.5 0 0 0-.053.133h-.001a.37.37 0 0 1-.222.279 1 1 0 0 0-.116.069 2 2 0 0 0-.374-.112q-.08-.01-.155-.015a.8.8 0 0 0 .012-.278.37.37 0 0 1 .104-.355l-.001-.001a.47.47 0 0 0 .124-.332.106.106 0 0 0 .139-.051.106.106 0 0 0 .141-.051l.148-.315q.26.131.514.272l-.183.312a.104.104 0 0 0 .038.144.106.106 0 0 0 .036.144.5.5 0 0 0-.151.157m-13.678.369a2 2 0 0 0-.374.112 1 1 0 0 0-.115-.069.38.38 0 0 1-.222-.279h-.001a.48.48 0 0 0-.204-.29.106.106 0 0 0 .036-.144.105.105 0 0 0 .038-.144l-.183-.312q.255-.14.514-.272l.148.315a.106.106 0 0 0 .141.051.105.105 0 0 0 .139.051.48.48 0 0 0 .123.332v.001a.36.36 0 0 1 .104.355.8.8 0 0 0 .012.278 3 3 0 0 0-.156.015m8.538-1.011q-.681-.105-1.382-.142v-4.387a10.5 10.5 0 0 1 2.097 3.168l.005.006zm-2.803-.142q-.7.037-1.382.142l-.72-1.355.004-.006a10.5 10.5 0 0 1 2.098-3.168z"/><path fill="#195633" d="M38.416 33.656v5.197a2.11 2.11 0 0 1-2.109 2.109h-4.45c-.384 0-.724.184-.937.469V37.71l2.321-.29.256.022-1.779.922c-.028.015-.041.049-.029.079s.046.045.076.035l1.911-.606-1.291 1.533a.063.063 0 0 0 .003.084.06.06 0 0 0 .084.003l1.533-1.29-.606 1.91a.06.06 0 0 0 .036.076c.029.012.063 0 .078-.029l.922-1.779.172 1.997c.002.032.029.057.061.057s.059-.025.062-.057l.171-1.997.923 1.779c.015.029.049.041.079.029a.06.06 0 0 0 .034-.076l-.606-1.91 1.533 1.29c.025.022.061.02.085-.003a.064.064 0 0 0 .003-.084l-1.291-1.533 1.911.606c.03.01.063-.005.076-.035a.064.064 0 0 0-.029-.079l-1.78-.922 1.997-.171c.032-.003.057-.03.057-.062s-.025-.059-.057-.062l-1.997-.171 1.78-.922a.064.064 0 0 0 .029-.079.06.06 0 0 0-.076-.035l-1.911.605 1.291-1.533a.063.063 0 0 0-.003-.083.064.064 0 0 0-.085-.004l-1.533 1.292.606-1.911a.06.06 0 0 0-.034-.076.06.06 0 0 0-.079.029l-.923 1.779-.171-1.997c-.003-.032-.03-.057-.062-.057s-.059.025-.061.057l-.172 1.997-.922-1.779a.06.06 0 0 0-.078-.029.06.06 0 0 0-.036.076l.606 1.911-1.533-1.292a.063.063 0 0 0-.084.004.06.06 0 0 0-.003.083l1.291 1.533-1.911-.605c-.03-.01-.064.005-.076.035s.001.064.029.079l1.779.922-.127.011-2.45-.233v-4.699c.373.357 1.262 1.159 1.955 1.409 1.142.412 1.851-.186 2.07-.415.18.231.725.842 1.491.842.332 0 .682-.139 1.011-.401.163-.129.282-.257.346-.332z"/><path fill="#43c1e1" d="m38.416 33.444-.65-.52-.051.068c-.006.007-.564.733-1.279.733-.835 0-1.41-.846-1.416-.854l-.066-.098-.07.095a1.5 1.5 0 0 1-.491.392c-.435.225-.927.241-1.462.048-.652-.235-1.519-1.014-1.89-1.366h7.375z"/><path fill="#fcdb00" d="m33.745 36.964-1.328-.688 1.426.452a.06.06 0 0 0 .069-.025.06.06 0 0 0-.003-.074l-.963-1.144 1.143.964a.062.062 0 0 0 .099-.067l-.452-1.425.688 1.328c.013.024.04.037.067.032s.047-.028.05-.056l.127-1.489.128 1.489a.06.06 0 0 0 .049.056.064.064 0 0 0 .068-.032l.687-1.328-.451 1.425a.06.06 0 0 0 .024.071.06.06 0 0 0 .074-.004l1.144-.964-.963 1.144a.062.062 0 0 0 .066.099l1.426-.452-1.328.688a.06.06 0 0 0-.032.067.06.06 0 0 0 .055.05l1.489.127-1.489.128a.06.06 0 0 0-.055.049.06.06 0 0 0 .032.068l1.328.688-1.426-.452a.062.062 0 0 0-.066.098l.963 1.144-1.144-.963a.06.06 0 0 0-.074-.004.06.06 0 0 0-.024.07l.451 1.425-.687-1.327a.06.06 0 0 0-.068-.032.06.06 0 0 0-.049.055l-.128 1.489-.127-1.489a.06.06 0 0 0-.05-.055l-.012-.002a.06.06 0 0 0-.055.034l-.688 1.327.452-1.425a.06.06 0 0 0-.025-.07.06.06 0 0 0-.074.004l-1.143.963.963-1.144a.06.06 0 0 0 .003-.074.06.06 0 0 0-.069-.024l-1.426.452 1.328-.688a.065.065 0 0 0 .032-.068.06.06 0 0 0-.056-.049l-1.489-.128 1.489-.127a.064.064 0 0 0 .056-.05.06.06 0 0 0-.032-.067m-2.825-.086 1.762.167-1.181.102c-.032.003-.057.03-.057.062s.025.059.057.062l1.147.097-1.728.217z"/><path fill="#265e34" d="M30.686 31.708h-2.262v-2.04a.08.08 0 0 0-.052-.076.08.08 0 0 0-.09.018c-.003.003-.339.337-.979.401a3.4 3.4 0 0 1-1.235-.108c.27-.101.728-.289 1.065-.503.511-.325.958-.813.977-.834a.085.085 0 0 0 .01-.098.08.08 0 0 0-.091-.038 10 10 0 0 1-.763.149 3 3 0 0 1-.468.019c.272-.161.701-.431.925-.658.539-.543.71-1.132.717-1.157a.083.083 0 0 0-.131-.087 1.7 1.7 0 0 1-.617.274 2.4 2.4 0 0 1-.447.066c.217-.189.595-.543.863-.924.502-.715.586-1.242.59-1.265a.08.08 0 0 0-.036-.08.08.08 0 0 0-.087-.004c-.004.002-.383.223-.508.281-.043.02-.116.05-.195.081.178-.209.424-.533.633-.933.276-.531.325-1.193.332-1.504h1.849z"/><path fill="#fcd200" d="M23.189 22.688h3.377c-.012.317-.069.905-.311 1.368a3.6 3.6 0 0 1-.834 1.063.08.08 0 0 0-.03.081.08.08 0 0 0 .059.064c.019.005.197.048.565-.091.145-.055.258-.111.343-.159a3.4 3.4 0 0 1-.567.938c-.411.5-.9.736-.905.739a.08.08 0 0 0-.047.073c0 .032.017.06.045.075.011.005.263.131.728.111.21-.01.36-.033.467-.057a4 4 0 0 1-.573.621c-.329.303-.945.474-.951.476a.08.08 0 0 0-.06.073.08.08 0 0 0 .047.082c.013.005.309.141.616.207.281.06.603.009.787-.032-.093.252-.339.793-.84 1.131-.469.316-1.037.48-1.043.482a.083.083 0 0 0-.059.092c.006.04.042.069.083.07l1.949-.029q.055.016.121.032v.547a.387.387 0 0 1-.43-.384v-.002a.083.083 0 0 0-.159-.032.1.1 0 0 0-.007.033v.001a.388.388 0 0 1-.776.003l.001-.005a.083.083 0 0 0-.082-.083h-.001a.083.083 0 0 0-.083.083l.001.005a.389.389 0 0 1-.776-.005.07.07 0 0 0-.015-.046.08.08 0 0 0-.068-.037.083.083 0 0 0-.083.083.388.388 0 0 1-.489.374z"/><path fill="#00af42" d="M26.321 31.708v-1.575c.263.049.607.082.998.042.458-.045.772-.216.939-.333v1.866zm2.349-9.02c-.008.298-.056.933-.313 1.427-.355.681-.835 1.146-.84 1.151a.08.08 0 0 0-.013.104c.021.033.063.047.098.033.018-.006.402-.147.535-.21.075-.035.23-.121.351-.19a3.7 3.7 0 0 1-.515 1.013c-.374.532-.994 1.028-.999 1.033a.08.08 0 0 0-.029.086.08.08 0 0 0 .067.06c.011.002.27.041.718-.065.194-.045.352-.112.465-.171-.095.214-.277.55-.59.865-.32.323-1.124.765-1.131.769a.083.083 0 0 0 .032.155c.02.002.474.04.785-.006.181-.027.361-.061.503-.091a5 5 0 0 1-.75.609c-.48.306-1.249.565-1.256.567a.08.08 0 0 0-.055.075v.004l-1.162.017c.191-.082.416-.193.627-.335.72-.486.944-1.329.953-1.364a.09.09 0 0 0-.023-.081.09.09 0 0 0-.082-.019c-.005.001-.481.146-.852.066a3 3 0 0 1-.376-.112c.224-.081.57-.23.801-.442.634-.584.713-.846.72-.874.008-.033-.005-.07-.034-.089s-.066-.019-.094.002c-.001.001-.138.088-.606.109a1.8 1.8 0 0 1-.478-.039 3.2 3.2 0 0 0 .792-.688c.557-.674.667-1.208.672-1.231a.08.08 0 0 0-.042-.088.08.08 0 0 0-.097.013c-.001.001-.142.134-.495.267q-.159.058-.262.076c.18-.177.468-.503.707-.962.261-.498.319-1.114.331-1.444z"/><path fill="#0033a1" d="M23.189 30.803a.56.56 0 0 0 .572-.254.553.553 0 0 0 .941 0 .552.552 0 0 0 .941.001.55.55 0 0 0 .47.264q.022 0 .043-.003v.897h-2.967z"/><path fill="#43c1e1" d="M38.416 30.648a.39.39 0 0 1-.356-.387.08.08 0 0 0-.083-.082h-.009a.08.08 0 0 0-.083.082.388.388 0 0 1-.719.201v-7.774h1.25zm-4.105-.714.664.569a.388.388 0 0 1-.664-.103zm-3.391-.466 1.308.799a.388.388 0 0 1-.776-.008.1.1 0 0 0-.015-.046.08.08 0 0 0-.068-.037.083.083 0 0 0-.083.083.39.39 0 0 1-.366.387zm1.923 1.174a.386.386 0 0 1-.431-.263zm1.468-7.954h2.675a15.7 15.7 0 0 1-1.033 4.078c-.673 1.652-1.369 2.517-1.642 2.818zm-3.391 0h3.206c-.075.561-.38 2.404-1.327 4.179a9.3 9.3 0 0 1-1.879 2.42z"/><path fill="#0033a1" d="M38.416 31.708H30.92v-.896a.55.55 0 0 0 .449-.264.55.55 0 0 0 .941.001.55.55 0 0 0 .941 0 .56.56 0 0 0 .471.265c.202 0 .379-.11.476-.272a.553.553 0 0 0 .946.008.55.55 0 0 0 .941 0 .553.553 0 0 0 .941 0 .554.554 0 0 0 .946-.007.55.55 0 0 0 .444.27zm-5.571-4.584.099-.18a12 12 0 0 0 .673-1.525l.529.231v2.027zm3.647-1.356c.248-.773.407-1.48.509-2.034v2.213z"/><path fill="#e30613" d="M36.944 30.263a.389.389 0 0 1-.776.003v-.005c0-.046-.037-.083-.083-.083s-.082.037-.082.083v.005a.388.388 0 0 1-.776-.003v-.003a.083.083 0 0 0-.129-.068.08.08 0 0 0-.037.069l-.006.067-.676-.571c.094-.099.271-.298.497-.617q.07-.099.149-.218l1.975.861v.399a.1.1 0 0 0-.05.047.1.1 0 0 0-.006.032zm-3.272-4.999a14 14 0 0 0 .474-1.723v1.93z"/><path fill="#fcd200" d="M33.252 30.176a.08.08 0 0 0-.076.051.1.1 0 0 0-.007.033v.001a.39.39 0 0 1-.143.299l-1.951-1.191c.16-.146.526-.5.94-1.019l2.131.846v.996a.08.08 0 0 0-.035.068.39.39 0 0 1-.777.001v-.002a.08.08 0 0 0-.082-.083m1.864-1.395c.251-.396.555-.941.863-1.65l1.021.356v2.116z"/><path fill="#43c1e1" d="m30.686 32.661-.023-.008c-.066-.01-1.633-.252-3.367 1.118-1.131.893-1.606 1.965-1.953 2.747-.157.354-.293.659-.447.845-.079.096-.185.137-.364.139q-.01-.004-.021-.004a.39.39 0 0 1-.388-.388.08.08 0 0 0-.083-.082h-.009a.08.08 0 0 0-.082.082.389.389 0 0 1-.76.115v-5.283h7.497z"/><path fill="#0033a1" d="M30.636 32.816c-.02-.004-1.566-.237-3.238 1.084-1.098.867-1.564 1.917-1.904 2.684-.162.365-.301.68-.47.884-.144.175-.342.198-.498.198l-.023-.003a.56.56 0 0 1-.467-.272.554.554 0 0 1-.847.129v1.312c.002.26.026.359.049.468a2.11 2.11 0 0 0 2.06 1.661h4.451c.383 0 .723.184.937.469v-8.622a.1.1 0 0 1-.05.008"/><path fill="#fff" d="m30.591 35.664.097.001V35.5l-.085-.001c-.087-.006-.597-.029-1.3.182-.537-.222-.907-.68-.907-1.209 0-.431.246-.814.627-1.062a.429.429 0 1 0 .283-.324l-.001-.002c-.632.237-1.074.77-1.074 1.388 0 .54.338 1.015.845 1.284a5.2 5.2 0 0 0-1.313.699c-.92.669-1.234 1.377-1.486 1.946-.127.285-.237.532-.398.729-.08.096-.186.136-.365.137l-.021-.002a.39.39 0 0 1-.388-.389.083.083 0 0 0-.083-.083l-.004.001-.005-.001a.083.083 0 0 0-.083.083c0 .214-.174.389-.388.389s-.388-.175-.388-.389a.083.083 0 0 0-.083-.083l-.004.001-.003-.001a.08.08 0 0 0-.084.083.39.39 0 0 1-.777 0 .1.1 0 0 0-.011-.04l-.003.005.002.215a1 1 0 0 0 .036.229l.013.019a.554.554 0 0 0 .827-.146.552.552 0 0 0 .951 0 .55.55 0 0 0 .467.272l.022.003h.001c.156 0 .353-.024.498-.198.176-.214.295-.483.422-.767.244-.551.549-1.237 1.433-1.88a5 5 0 0 1 1.434-.732 2.1 2.1 0 0 0 1.393.031v-.174a1.9 1.9 0 0 1-1.098.06 3.5 3.5 0 0 1 1.001-.109m-1.664 3.552a.08.08 0 0 0-.114-.024.455.455 0 0 1-.578-.693l.029-.028a.083.083 0 0 0 .008-.117.083.083 0 0 0-.117-.008l-.045.045a.455.455 0 0 1-.537-.729.08.08 0 0 0 .007-.116.08.08 0 0 0-.116-.008.62.62 0 0 0-.136.76.62.62 0 0 0 .795.947.615.615 0 0 0 .781.085.08.08 0 0 0 .023-.114m-1.179-.009a.456.456 0 0 1-.455-.455.45.45 0 0 1 .134-.319.62.62 0 0 0 .55.181.62.62 0 0 0 .047.499.45.45 0 0 1-.276.094m2.941-.391a1.6 1.6 0 0 1-.494.076c-.805 0-1.46-.579-1.46-1.291 0-.442.258-.843.656-1.077a.445.445 0 1 0 .322-.313v-.001l-.021.006-.009.002c-.655.195-1.113.752-1.113 1.383 0 .803.729 1.456 1.625 1.456q.255 0 .494-.068zm-.002-1.602-1.045.676a.08.08 0 0 0-.024.114.08.08 0 0 0 .069.038.1.1 0 0 0 .045-.013l.955-.618zm-3.025-1.145a.62.62 0 0 0 .422-.166.08.08 0 0 0 .004-.116.08.08 0 0 0-.117-.005.455.455 0 0 1-.63-.653.62.62 0 0 0 .785.09.083.083 0 0 0 .024-.114.08.08 0 0 0-.114-.024.455.455 0 0 1-.548-.722.083.083 0 0 0 .007-.117.083.083 0 0 0-.117-.007.62.62 0 0 0-.136.759.62.62 0 0 0 .42 1.075m1.837-1.238a.08.08 0 0 0 .069.038.1.1 0 0 0 .045-.014l1.073-.694v-.197l-1.163.753a.08.08 0 0 0-.024.114"/><path fill="#76777b" d="M36.479 48.935v.911c0 .273.091.411.251.411.165 0 .257-.131.257-.411v-.912h.313v.889c0 .488-.217.721-.58.721-.35 0-.557-.22-.557-.727v-.883zm-6.433 1.54a.8.8 0 0 1-.357.068c-.481 0-.728-.34-.728-.792 0-.541.338-.842.759-.842.163 0 .287.038.343.071l-.064.284a.6.6 0 0 0-.265-.058c-.249 0-.443.171-.443.524 0 .317.165.517.446.517a.7.7 0 0 0 .262-.051zm-5.763-1.519c.115-.021.266-.034.424-.034.265 0 .435.055.57.17.144.122.235.318.235.597 0 .304-.097.513-.231.642-.146.139-.369.205-.642.205-.163 0-.278-.012-.356-.024zm11.313.957c-.006-.19-.012-.421-.012-.651h-.007a9 9 0 0 1-.155.614l-.169.617h-.245l-.149-.613a8 8 0 0 1-.126-.618h-.004l-.049 1.258h-.291l.088-1.585h.419l.136.529c.044.183.087.381.118.566h.006c.04-.183.087-.392.132-.568l.149-.527h.41l.077 1.585h-.307zm-7.159-.977h.316v1.584h-.316zm3.238 0h.316v1.584h-.316zm-4.437.02c.096-.018.233-.033.425-.033.194 0 .332.043.425.127.088.08.148.212.148.368a.54.54 0 0 1-.128.375c-.107.116-.265.168-.452.168a1 1 0 0 1-.107-.008v.567h-.311zm3.33-.021v.609h.518v-.609h.314v1.584h-.314v-.663h-.518v.663h-.315v-1.584zm1.696 0h.315v1.284h.553v.3h-.868zm1.881.914h-.512v.376h.572v.294h-.888v-1.584h.859v.294l-.543.001v.329h.512zm-7.599 0h-.511v.376h.571v.294h-.888v-1.584h.859v.294h-.542v.329h.511zm-1.948.4c.027.007.07.007.109.007.285.002.471-.176.471-.555.002-.329-.167-.503-.438-.503a.6.6 0 0 0-.142.014zm2.951-.574q.039.01.105.01c.167 0 .27-.097.27-.259 0-.146-.088-.233-.245-.233a.5.5 0 0 0-.13.014zm1.802-3.327v.913c0 .272.091.411.252.411.165 0 .255-.132.255-.411v-.913h.314v.889c0 .489-.216.721-.58.721-.351 0-.557-.22-.557-.726v-.884zm-8.141 0v.913c0 .272.091.411.252.411.165 0 .255-.132.255-.411v-.913h.314v.889c0 .489-.217.721-.58.721-.35 0-.557-.22-.557-.726v-.884zm12.268 1.54a.8.8 0 0 1-.357.069c-.481 0-.729-.342-.729-.793 0-.541.339-.842.76-.842.163 0 .286.038.342.07l-.063.285a.6.6 0 0 0-.264-.059c-.249 0-.444.172-.444.525.001.317.166.517.447.517a.7.7 0 0 0 .262-.052zm-11.165-.324a.73.73 0 0 0 .348.099c.145 0 .221-.068.221-.171 0-.099-.065-.156-.233-.224-.231-.092-.382-.237-.382-.468 0-.27.199-.477.527-.477a.76.76 0 0 1 .355.08l-.071.289a.6.6 0 0 0-.291-.075c-.136 0-.202.07-.202.152 0 .102.079.146.258.224.246.103.361.249.361.473 0 .265-.179.491-.561.491a.8.8 0 0 1-.394-.097zm18.788-1.195a2.5 2.5 0 0 1 .425-.033c.264 0 .435.054.569.169.144.123.235.318.235.597 0 .304-.097.513-.231.643-.146.138-.369.204-.641.204-.163 0-.279-.011-.357-.023zm-2.757 0c.116-.021.266-.033.425-.033.264 0 .435.054.57.169.144.123.235.318.235.597 0 .304-.097.513-.231.643-.147.138-.37.204-.642.204-.163 0-.278-.011-.357-.023zm-9.877.958a21 21 0 0 1-.012-.651h-.007c-.043.202-.1.427-.154.613l-.17.619h-.245l-.148-.614a8 8 0 0 1-.126-.618H27.6l-.049 1.258h-.291l.089-1.585h.419l.136.529c.043.183.086.381.118.566h.006c.039-.183.086-.392.132-.568l.148-.527h.41l.077 1.585h-.307zm-3.919-.958c.101-.018.251-.033.418-.033.207 0 .351.036.45.125q.126.113.128.331a.42.42 0 0 1-.246.391v.007c.098.044.151.15.186.296.043.179.087.386.114.447h-.322a2 2 0 0 1-.097-.37c-.037-.197-.097-.251-.226-.253h-.094v.623h-.311zm15.523 1.157-.099.407h-.325l.424-1.585h.413l.431 1.585h-.338l-.107-.407zm-4.4 0-.099.407h-.326l.425-1.585h.412l.432 1.585h-.338l-.108-.407zm2.085-1.178h.315v1.585h-.315zm-17.851 0h.315v1.284h.554v.301h-.869zm13.78 0H34v1.585h-.315zm-1.817 0h.316v1.585h-.316zm-12.552 0h.316v1.585h-.316zm11.128 1.585v-1.585h.367l.289.581c.083.167.165.364.227.543h.006a7 7 0 0 1-.027-.661v-.463h.289v1.585h-.33l-.297-.611a6 6 0 0 1-.241-.56l-.007.002c.009.209.013.433.013.692v.477zm-6.759-1.284h-.374v-.301h1.07v.301h-.38v1.284h-.316zm10.588-.28c.095-.018.232-.033.424-.033.194 0 .332.043.424.127.09.08.149.212.149.368a.54.54 0 0 1-.128.376c-.107.115-.266.166-.452.166a1 1 0 0 1-.107-.007v.567h-.311zm-7.673.894h-.511v.376h.571v.294h-.887v-1.585h.858v.294h-.542v.329h.511zm10.102-.915h.316v1.284h.553v.301h-.869zm4.715 1.314c.027.007.07.007.11.007.284.003.47-.176.47-.555.002-.329-.167-.503-.437-.503a.6.6 0 0 0-.143.014zm-2.756 0c.027.007.07.007.109.007.285.003.47-.176.47-.555.002-.329-.167-.503-.437-.503a.6.6 0 0 0-.142.014zm1.764-.404-.087-.336c-.024-.094-.049-.212-.069-.306h-.004c-.021.094-.042.215-.065.306l-.082.336zm-4.4 0-.087-.336c-.025-.094-.05-.212-.07-.306h-.004c-.021.094-.042.215-.064.306l-.083.336zm-1.441-.169a.4.4 0 0 0 .105.009c.167 0 .27-.096.27-.258 0-.146-.088-.233-.245-.233a.5.5 0 0 0-.13.014zm-9.724-.038h.124c.157 0 .25-.089.25-.228 0-.146-.087-.219-.232-.221a1 1 0 0 0-.142.011zm9.994-4.287a.15.15 0 0 0 .153-.007.3.3 0 0 0 .072-.077.5.5 0 0 0 .053-.13 1 1 0 0 0 .023-.188l-.003-.003a.2.2 0 0 1-.027.033.1.1 0 0 1-.036.028.2.2 0 0 1-.048.017.3.3 0 0 1-.065.006.3.3 0 0 1-.097-.018.23.23 0 0 1-.137-.142.42.42 0 0 1 0-.261.28.28 0 0 1 .156-.173.3.3 0 0 1 .127-.025q.074 0 .133.026t.103.078q.042.052.066.13c.024.078.023.113.023.182q0 .145-.03.257a.6.6 0 0 1-.086.19.4.4 0 0 1-.134.117.4.4 0 0 1-.227.034.1.1 0 0 1-.046-.015l-.033-.087.009-.011a.3.3 0 0 0 .051.039m-.767-.515a.22.22 0 0 1-.083-.107.2.2 0 0 1-.012-.075.23.23 0 0 1 .081-.18.3.3 0 0 1 .09-.047.4.4 0 0 1 .113-.016q.072 0 .127.019a.3.3 0 0 1 .089.05.2.2 0 0 1 .07.16q0 .048-.011.085a.3.3 0 0 1-.033.065.2.2 0 0 1-.049.045.2.2 0 0 1-.059.025v.011a.2.2 0 0 1 .122.074.3.3 0 0 1 .043.075.36.36 0 0 1-.007.237q-.024.059-.067.098a.2.2 0 0 1-.101.057.5.5 0 0 1-.251.002.3.3 0 0 1-.099-.053.3.3 0 0 1-.064-.091.3.3 0 0 1-.024-.129q0-.06.016-.105a.27.27 0 0 1 .098-.135.3.3 0 0 1 .07-.03v-.011a.2.2 0 0 1-.059-.024m1.859-.326-.009.55.008.354h-.21l.015-.407v-.419l-.155.085-.034-.047q-.02-.025-.032-.035a3 3 0 0 0 .396-.192l.026.012zm-2.326 0-.009.55.008.354h-.21l.015-.407v-.419l-.156.085a.4.4 0 0 0-.065-.082 3 3 0 0 0 .396-.192l.026.012zm-7.255.648q.072-.089.118-.167a.56.56 0 0 0 .074-.4.2.2 0 0 0-.031-.066.11.11 0 0 0-.093-.047.1.1 0 0 0-.062.022.2.2 0 0 0-.04.057.3.3 0 0 0-.025.138l-.014.005-.052-.052-.052-.047a.27.27 0 0 1 .092-.135.3.3 0 0 1 .187-.056q.093 0 .152.024a.3.3 0 0 1 .097.062.2.2 0 0 1 .05.083.3.3 0 0 1-.002.191.5.5 0 0 1-.058.119 1 1 0 0 1-.117.149q-.075.083-.191.194l.001.003.379-.012v.19h-.589v-.062q.104-.105.176-.193m-.776 0q.073-.089.118-.167a.56.56 0 0 0 .086-.298.4.4 0 0 0-.012-.102.2.2 0 0 0-.03-.066.1.1 0 0 0-.044-.036.1.1 0 0 0-.049-.011.1.1 0 0 0-.063.022.2.2 0 0 0-.039.057.4.4 0 0 0-.026.138l-.013.005-.105-.099a.27.27 0 0 1 .093-.135.3.3 0 0 1 .186-.056q.093 0 .153.024a.3.3 0 0 1 .097.062q.035.038.049.083a.3.3 0 0 1-.002.191q-.016.053-.058.119c-.042.066-.067.094-.116.149a4 4 0 0 1-.191.194l.001.003.379-.012-.003.048-.003.049.003.048.003.045h-.59v-.062q.104-.105.176-.193m2.847-.367-.201-.4.181.006.06-.006.166.363.195-.363a.4.4 0 0 0 .102.006l.035-.006-.282.451.281.571h-.234l-.176-.376-.203.376-.098-.003-.036.003.286-.468zm.725-.207-.008-.193.11.008.11-.008-.011.412.003.422q.002.096.008.188h-.22l.011-.407zm.477 0-.008-.193.11.008.109-.008-.01.412.002.422.008.188h-.219l.01-.407zm4.722.376q-.033-.055-.086-.055-.05 0-.082.054a.4.4 0 0 0-.031.18q0 .117.032.176t.084.059q.046 0 .081-.058a.35.35 0 0 0 .036-.181.35.35 0 0 0-.034-.175m-6.993.043h.334v.164h-.334zm7.754-.469q-.031-.056-.082-.056-.057 0-.085.062a.5.5 0 0 0-.028.174q0 .064.009.109.008.044.024.071c.016.027.022.031.036.039s.029.012.045.012q.023 0 .043-.012a.1.1 0 0 0 .035-.038q.016-.024.025-.066c.009-.042.009-.061.009-.099a.44.44 0 0 0-.031-.196m-.763-.011q-.024-.051-.077-.051a.09.09 0 0 0-.085.052.4.4 0 0 0-.025.146q0 .087.033.13.031.044.07.044.05 0 .079-.05a.3.3 0 0 0 .029-.139.3.3 0 0 0-.024-.132m-7.093-20.66a.6.6 0 0 0-.018.109.95.95 0 0 1-.471.105 1 1 0 0 1-.358-.063.75.75 0 0 1-.435-.447 1 1 0 0 1-.058-.338q0-.267.075-.452c.075-.185.117-.225.201-.303a.8.8 0 0 1 .292-.17 1.1 1.1 0 0 1 .474-.044q.067.011.129.027a.8.8 0 0 1 .215.089 1 1 0 0 0-.053.261h-.032a.6.6 0 0 0-.181-.176.44.44 0 0 0-.401-.006q-.094.046-.17.141a.6.6 0 0 0-.124.242 1.2 1.2 0 0 0-.047.352q0 .198.049.337a.7.7 0 0 0 .125.228q.078.09.175.13a.5.5 0 0 0 .311.027.7.7 0 0 0 .218-.099.5.5 0 0 0 .086-.079l.03.02a1 1 0 0 0-.032.109m10.434.179a.6.6 0 0 1-.223-.115.55.55 0 0 1-.148-.208.8.8 0 0 1-.055-.309l.005-.599-.009-.528.189.013.189-.013q-.023.249-.028.463-.004.213-.004.434 0 .233.03.377.03.143.088.221.06.078.144.104a.7.7 0 0 0 .199.025.3.3 0 0 0 .217-.076.5.5 0 0 0 .118-.205 1.3 1.3 0 0 0 .05-.294q.009-.165.009-.344a14 14 0 0 0-.018-.705l.117.013q.03 0 .057-.004l.059-.009-.019.37-.011.591q0 .446-.173.639c-.173.193-.285.193-.507.193q-.148 0-.276-.034m-14.646-1.427a12 12 0 0 0-.014-.332l.189.013.337-.013q.163 0 .255.027a.34.34 0 0 1 .146.078.42.42 0 0 1 .143.346q0 .146-.044.251a.34.34 0 0 1-.124.171.5.5 0 0 1-.188.095.8.8 0 0 1-.237.031h-.118q0 .192.004.383.003.192.015.378h-.378q.01-.159.014-.324l.004-.726q0-.213-.004-.378m8.475 0q-.005-.165-.014-.332l.19.013.188-.013q-.009.167-.014.332l-.003 1.008q0 .136.003.236a5 5 0 0 0 .529-.033l-.008.051v.128l.008.038-.848-.004-.045.004q.01-.159.014-.324l.005-.726q0-.213-.005-.378m1.591 0q-.004-.165-.012-.332l.41.013q.171 0 .304-.004c.133-.004.148-.005.178-.009a.5.5 0 0 0-.006.172l.006.051-.521-.031a5 5 0 0 0-.01.28l-.001.279.523-.021q-.007.043-.009.067-.003.022-.002.049l.003.042q.004.021.008.062a6 6 0 0 0-.523-.022l-.002.328q0 .165.006.32a5 5 0 0 0 .528-.033l-.009.115q0 .04.003.064.002.023.006.038l-.847-.004-.045.004q.008-.159.012-.324l.004-.726q0-.213-.004-.378m-8.294 0q-.005-.165-.014-.332l.19.013.188-.013q-.008.167-.013.332l-.005.726a11 11 0 0 0 .018.702h-.378q.01-.159.014-.324l.005-.726q0-.213-.005-.378m5.483 0q-.005-.165-.014-.332l.19.013.188-.013q-.01.167-.014.332l-.004.726a11 11 0 0 0 .018.702h-.378q.01-.159.014-.324l.005-.726q0-.213-.005-.378m4.582.854-.037.574-.162-.005-.055.005q.075-.441.132-.876c.057-.435.074-.585.106-.884a.5.5 0 0 0 .095.013.5.5 0 0 0 .092-.013l.266.629.266.596q.139-.288.276-.601.137-.314.262-.624a.4.4 0 0 0 .099.013.4.4 0 0 0 .097-.013l.101.97q.026.242.051.452c.025.21.032.253.046.338h-.378q-.011-.264-.039-.571l-.053-.61h-.005l-.51 1.181-.022-.004-.021-.001-.022.001-.022.004-.248-.574a39 39 0 0 0-.255-.581h-.004q-.038.294-.056.581m-5.974-.28-.35-.001-.176.008.005.523q.004.167.013.324h-.377q.009-.157.013-.324l.005-.726a14 14 0 0 0-.018-.71l.188.014.189-.014a9 9 0 0 0-.018.705l.556.004.145-.004q0-.212-.004-.375a13 13 0 0 0-.015-.33l.19.014.189-.014a9 9 0 0 0-.014.332l-.005.727a14 14 0 0 0 .019.701h-.379q.01-.157.015-.324l.004-.523zm-5.191-.578a.3.3 0 0 0-.053-.107q-.034-.039-.079-.057c-.045-.018-.061-.018-.093-.018h-.076l-.021.003-.005.72a.6.6 0 0 0 .12-.013.3.3 0 0 0 .112-.053.3.3 0 0 0 .082-.114.5.5 0 0 0 .032-.197.6.6 0 0 0-.019-.164"/></g><path fill="#fcdb00" d="m41.198 55.113-.558-1.417c-.236-.598-.605-.718-.949-.582-.39.153-.56.51-.332 1.087l.558 1.417-.167.066-.552-1.403c-.284-.721.003-1.135.445-1.31.41-.161.876-.071 1.16.649l.562 1.427zm.453-1.648c.196.324.438.72.567.965l.007-.004c-.045-.284-.091-.59-.138-.992l-.167-1.458.109-.057 1.063.952c.309.282.546.499.741.709l.006-.003a27 27 0 0 1-.486-1.045l-.471-1.063.156-.082 1.011 2.316-.181.096-1.158-1.035a11 11 0 0 1-.624-.593l-.01.005c.052.235.085.492.131.852l.178 1.551-.188.099-1.323-2.152.156-.082zm2.427-1.272.841-.552-.604-.922-.942.617-.082-.125 1.092-.716 1.381 2.109-1.041.682-.082-.125.891-.584-.53-.81-.842.551zm3.142-.666-.143.109-1.436-1.887-.893.68-.09-.119 1.036-.789zm-.949-2.489 1.627 1.927-.137.115-1.627-1.926zm3.315.367-.77-.8-1.002.964.77.799-.13.125-1.746-1.816.129-.124.873.908 1.003-.964-.874-.908.13-.125 1.746 1.817zm-1.293-2.146c.035-.138.146-.363.349-.598.398-.461 1.074-.648 1.75-.064.566.489.678 1.223.157 1.826-.21.244-.387.338-.464.371l-.076-.14c.131-.055.285-.165.424-.326.445-.515.383-1.117-.166-1.592-.518-.447-1.106-.441-1.549.07-.139.161-.242.35-.284.506zm1.506-1.952 2.001 1.532-.108.142-2.002-1.532zm3.117-.098c-.06.136-.145.3-.265.476-.169.247-.363.391-.552.429a.66.66 0 0 1-.517-.118c-.179-.122-.278-.262-.317-.43-.061-.236.011-.513.186-.77.065-.095.125-.176.197-.236l-.889-.607.101-.148zm-1.138-.56a1 1 0 0 0-.212.244c-.256.374-.228.719.102.944.327.224.638.087.863-.243.093-.136.151-.246.176-.31zm.864-1.37.475-.887-.973-.522-.531.993-.132-.071.616-1.15 2.223 1.191-.588 1.098-.132-.071.503-.94-.854-.458-.475.888zm2.709-2.818c-.046.192-.11.397-.205.617-.182.423-.433.694-.718.798-.273.103-.578.094-.928-.057-.341-.147-.606-.371-.746-.68-.136-.299-.116-.706.076-1.152a7 7 0 0 1 .24-.508zm-2.215-.758a3 3 0 0 0-.178.367c-.32.742-.063 1.289.607 1.577.585.26 1.127.107 1.448-.638.077-.179.12-.327.143-.436zm3.262-2.559c-.02.196-.057.407-.122.637-.124.443-.337.745-.606.887-.256.138-.56.168-.927.065-.357-.1-.65-.287-.829-.575-.175-.277-.208-.683-.076-1.151.052-.188.105-.363.17-.535zm-2.295-.459a3 3 0 0 0-.128.387c-.219.779.108 1.285.81 1.483.614.181 1.131-.042 1.351-.825.052-.186.075-.338.084-.449zm1.118-1.848-.814-.463.033-.18 2.319 1.346-.031.169-2.642.447.032-.18.925-.156zm-.02.954.883-.152c.183-.028.314-.038.461-.05l.001-.008a7 7 0 0 1-.407-.206l-.78-.456zm1.906-3.5c.016.197.021.411 0 .65-.04.458-.192.794-.43.984-.226.183-.519.27-.899.238-.369-.032-.692-.161-.922-.41-.223-.24-.332-.633-.29-1.117.016-.194.036-.376.067-.558zm-2.341-.021c-.024.099-.04.244-.054.404-.069.805.348 1.243 1.074 1.306.637.062 1.104-.255 1.173-1.063a2.3 2.3 0 0 0-.002-.458zm-.127-.936 2.52.05-.003.179-2.521-.049zm2.494-1.723.006.179-2.37.075.035 1.122-.15.004-.041-1.3zm-1.813-1.85-.912-.21-.02-.182 2.607.628.019.171-2.405 1.182-.021-.182.842-.414zm.253.921.803-.398c.168-.079.29-.127.427-.18l-.001-.007c-.148-.021-.283-.048-.448-.081l-.879-.215zm1.028-3.008c.051.139.106.315.144.525.053.295.016.533-.092.693a.65.65 0 0 1-.451.279c-.213.039-.382.009-.528-.083-.209-.126-.352-.373-.407-.679a1.1 1.1 0 0 1-.026-.307l-1.06.191-.032-.177zm-1.205.4c-.014.09-.002.202.02.323.081.446.342.672.736.601.39-.07.516-.386.444-.78a1.7 1.7 0 0 0-.092-.344zm-1.419-.69 2.453-.579.041.174-2.453.579zm.012-.401c-.098-.103-.228-.318-.317-.616-.175-.584.03-1.254.887-1.511.717-.215 1.396.086 1.624.849.093.308.079.508.064.59l-.159-.011c.024-.14.015-.328-.047-.532-.195-.653-.737-.924-1.432-.716-.656.197-.967.696-.773 1.345.061.204.164.392.274.511zm-.84-2.321 2.368-.866.061.168-2.367.867zm-.903-2.153 2.305-1.018.069.154-.966 1.497a8 8 0 0 1-.533.755l.006.005c.301-.161.562-.281.922-.44l1.149-.507.069.157-2.305 1.019-.067-.151.953-1.472c.188-.287.361-.551.548-.777l-.006-.005c-.277.142-.525.256-.908.425l-1.166.515zm1.181-3.086-1.325.749c-.559.316-.627.697-.445 1.019.206.365.582.484 1.122.178l1.325-.748.088.156-1.312.741c-.674.381-1.124.154-1.357-.259-.217-.384-.192-.857.481-1.238l1.335-.754zm-1.693-.218c.294-.238.654-.533.879-.694l-.005-.006c-.276.083-.572.171-.964.272l-1.422.366-.072-.1.798-1.185c.237-.344.42-.609.601-.831l-.004-.006c-.245.166-.611.406-.969.626l-.989.612-.102-.144 2.156-1.319.12.167-.867 1.289c-.189.282-.345.5-.501.699l.006.01c.225-.084.476-.152.826-.247l1.512-.389.124.174-1.951 1.605-.102-.143zm-2.144-2.871-.688-.735-.805.754.769.823-.109.102-.892-.954 1.841-1.723.851.91-.109.102-.729-.778-.707.662.687.735zm-1.379-3.105c.139.082.308.212.438.332.242.222.348.417.358.615a.63.63 0 0 1-.174.449c-.231.251-.527.274-.81.15l-.004.005c.105.184.069.411-.077.658-.203.347-.294.518-.323.627l-.136-.124c.021-.083.132-.281.298-.56.188-.32.184-.548-.051-.785l-.289-.266-.783.851-.132-.122zm-.671.994.294.271c.287.264.621.277.846.032.261-.284.159-.592-.133-.861a1.7 1.7 0 0 0-.29-.221zm-.479-1.79-.645-.511.093-.117 1.431 1.134-.093.117-.645-.511-1.474 1.858-.14-.111zm-3.141.319a1 1 0 0 0 .361.446c.312.213.624.168.799-.089.158-.231.133-.452-.092-.773-.251-.348-.334-.658-.142-.939.209-.306.611-.357.966-.115.194.133.309.284.348.378l-.142.089a.8.8 0 0 0-.3-.35c-.336-.229-.598-.092-.71.072-.156.229-.103.437.116.758.248.374.322.655.111.964-.206.303-.606.424-1.051.12-.179-.122-.349-.324-.402-.478zm-.663-2.991-.751 1.324c-.318.559-.179.922.143 1.105.364.206.747.114 1.054-.426l.751-1.323.156.088-.744 1.311c-.382.673-.885.71-1.298.476-.383-.218-.606-.637-.224-1.31l.757-1.333zm-1.66-.809.163.077-1.011 2.144 1.015.479-.063.135-1.178-.554zM39.82 8.939l.958-2.331.166.068-.958 2.331z"/></svg>
